<?xml version="1.0" encoding="UTF-8" standalone="no"?>
<!-- Generator: Adobe Illustrator 17.0.0, SVG Export Plug-In . SVG Version: 6.00 Build 0)  -->

<svg
   xmlns:dc="http://purl.org/dc/elements/1.1/"
   xmlns:cc="http://creativecommons.org/ns#"
   xmlns:rdf="http://www.w3.org/1999/02/22-rdf-syntax-ns#"
   xmlns:svg="http://www.w3.org/2000/svg"
   xmlns="http://www.w3.org/2000/svg"
   xmlns:sodipodi="http://sodipodi.sourceforge.net/DTD/sodipodi-0.dtd"
   xmlns:inkscape="http://www.inkscape.org/namespaces/inkscape"
   version="1.2"
   id="Layer_1"
   x="0px"
   y="0px"
   width="422.79788"
   height="261.32675"
   viewBox="0 0 422.79788 261.32675"
   xml:space="preserve"
   inkscape:version="0.91 r13725"
   sodipodi:docname="keybase2.svg"><metadata
     id="metadata13"><rdf:RDF><cc:Work
         rdf:about=""><dc:format>image/svg+xml</dc:format><dc:type
           rdf:resource="http://purl.org/dc/dcmitype/StillImage" /><dc:title></dc:title></cc:Work></rdf:RDF></metadata><defs
     id="defs11" /><sodipodi:namedview
     pagecolor="#ffffff"
     bordercolor="#666666"
     borderopacity="1"
     objecttolerance="10"
     gridtolerance="10"
     guidetolerance="10"
     inkscape:pageopacity="0"
     inkscape:pageshadow="2"
     inkscape:window-width="1920"
     inkscape:window-height="1016"
     id="namedview9"
     showgrid="false"
     fit-margin-top="0"
     fit-margin-left="0"
     fit-margin-right="0"
     fit-margin-bottom="0"
     inkscape:zoom="0.49166667"
     inkscape:cx="215.00951"
     inkscape:cy="130.66276"
     inkscape:window-x="1920"
     inkscape:window-y="27"
     inkscape:window-maximized="1"
     inkscape:current-layer="Layer_1" /><g
     id="g5"
     transform="translate(-29.058291,-109.33601)"><path
       d="m 273.938,369.372 c 46.09,0.704 54.361,-45.843 60.449,-53.7 6.112,13.477 32.805,56.165 64.7,54.966 50.652,-1.903 70.028,-51.041 34.967,-84.971 -20.255,-19.602 -45.271,-25.543 -56.889,-9.312 -14.813,20.695 36.402,11.452 44.569,38.276 5.183,17.022 -10.349,29.473 -24.462,28.358 -16.605,-1.312 -38.748,-44.91 -42.866,-55.87 -8.533,-22.713 -4.363,-34.698 -0.561,-57.147 6.159,-36.363 12.683,-56.025 14.95,-79.105 1.572,-16.009 4.503,-19.516 -13.757,-32.383 -14.958,-10.54 -22.525,16.342 -27.561,32.362 -10.91,34.707 -14.324,80.865 -24.245,129.072 -7.65,51.839 -42.25,58.323 -56.205,37.279 -12.95,-19.526 -2.929,-38.332 -11.033,-55.384 -10.618,-22.342 -25.935,-33.273 -50.527,-30.579 -5.309,0.581 -10.585,1.46 -15.876,2.202 l -0.616,0.822 c 0,0 0.756,-0.678 0.755,-0.679 1.537,-1.845 2.929,-3.836 4.634,-5.511 25.405,-24.956 49.93,-44.932 78.81,-65.468 18.462,-13.128 34.829,-24.187 24.929,-40.47 -7.473,-12.292 -26.982,-10.21 -45.964,3.079 -40.73,28.514 -61.926,52.922 -89.784,82.738 -2.704,2.894 -8.169,10.704 -9.83,7.724 0.221,-21.523 1.392,-42.804 0.443,-63.992 -1.567,-34.985 -24.749,-50.105 -58.088,-38.479 -11.43,3.986 -22.31,9.539 -33.431,14.4 -11.548,5.048 -13.374,14.261 -11.996,25.668 1.62,13.406 12.346,17.599 25.373,16.101 7.742,-0.89 13.467,-5.406 19.26,-9.685 10.07,-7.439 14.905,-3.499 16.929,7.14 1.902,9.995 2.792,20.056 2.863,30.285 0.345,49.953 -1.673,92.065 -5.68,141.728 -1.285,15.919 -2.073,26.898 16.751,28.797 17.873,1.804 26.015,-5.024 26.331,-20.961 0.336,-16.942 0.266,-33.895 0.136,-50.842 -0.075,-9.83 4.48,-16.149 13.07,-20.759 26.963,-14.469 47.259,-6.348 55.455,23.171 5.302,19.1 -4.559,67.877 73.997,71.129 z"
       id="path7"
       inkscape:connector-curvature="0"
       style="fill:#828282" /></g></svg>
