<svg viewBox="0 0 16 16">
	<g transform="matrix(0.05631622,0,0,0.05631622,-0.1045229,-0.28659324)">
		<path
		  d="M143.853,5.089 c -76.528,0 -139.11,59.385 -141.997,133.446 8.382,3.597 16.764,7.19 25.154,10.77 16.978,7.242 34.015,14.347 50.979,21.622 2.445,1.051 4.524,1.007 7.02,0.141 4.591,-1.599 9.32,-2.819 14.039,-4.011 2.264,-0.572 4.2,-1.294 5.641,-3.325 9.807,-13.829 19.665,-27.62 29.563,-41.378 1.837,-2.551 2.517,-5.301 2.88,-8.392 1.619,-13.742 7.742,-25.231 18.856,-33.482 19.523,-14.495 43.146,-14.128 62.185,1.041 9.767,7.785 15.237,18.272 17.306,30.768 2.222,13.422 -0.783,25.417 -8.239,36.459 -7.431,11.005 -17.856,18.291 -30.857,20.082 -9.035,1.243 -15.685,5.778 -22.436,10.817 -9.356,6.983 -18.573,14.152 -27.935,21.134 -3.432,2.562 -5.612,5.304 -6.384,9.96 -2.863,17.268 -13.71,28.539 -30.844,31.767 -15.89,2.995 -33.457,-4.929 -40.251,-20.379 -0.835,-1.897 -2.124,-3.729 -2.409,-5.707 -0.603,-4.159 -3.217,-6.007 -6.733,-7.495 -16.827,-7.125 -33.642,-14.277 -50.456,-21.432 18.765,55.229 72.151,95.179 134.918,95.179 78.361,0 142.113,-62.262 142.113,-138.792 0,-76.53 -63.752,-138.793 -142.113,-138.793 z"
		  fill="#828282" />
		<path
		  d="M221.635,119.645 c 221.386,99.468 205.059,84.88 186.52,84.688 c -19.036,-0.194 -35.002,16.25 -35.212,35.5 -0.19,17.445 14.713,35.424 35.385,35.06 16.51,0.333 35.215,-13.73 34.942,-35.603 z m -60.072,-0.047 c 0.163,-12.463 10.4,-24.611 25.018,-24.501 13.821,0.104 24.921,11.415 24.801,25.455 -0.114,13.538 -11.485,25.142 -25.101,24.243 -13.33,0.76 -24.9,-11.252 -24.718,-25.197 z"
		  fill="#828282" />
		<path
		  d="m114.348,222.577 c -8.53,5.314 -18.951,4.681 -26.198,-1.743 -1.124,-0.995 -2.147,-2.157 -3.404,-2.941 -2.099,-1.306 -4.322,-1.446 -6.152,0.541 -1.794,1.946 -1.679,3.901 -0.026,6.053 6.227,8.108 14.982,12.169 24.58,11.56 18.948,-1.206 29.9,-15.991 29.517,-31.013 0.846,-15.613 -12.473,-29.654 -29.733,-30.803 -2.349,-0.155 -4.861,0.521 -7.128,1.3 -2.03,0.698 -3.543,2.36 -3.117,4.788 0.396,2.246 1.909,3.71 4.195,3.983 1.856,0.224 3.754,0.104 5.635,0.133 9.672,0.147 17.84,6.034 20.096,15.179 2.204,8.944 -1.365,18.662 -8.265,22.963 z"
		  fill="#828282" />
	</g>
</svg>
